<svg id="Layer_1" data-name="Layer 1" xmlns="http://www.w3.org/2000/svg" xmlns:xlink="http://www.w3.org/1999/xlink" viewBox="0 0 1366 768"><defs><style>.cls-1,.cls-2{opacity:0.51;}.cls-1{fill:url(#linear-gradient);}.cls-2{fill:url(#linear-gradient-2);}.cls-3{font-size:88.86px;fill:#84d9fe;font-family:MyriadPro-Regular, Myriad Pro;letter-spacing:0em;}.cls-4{letter-spacing:0em;}.cls-5{font-size:26px;font-family:Optima-Regular, Optima;}.cls-6{letter-spacing:-0.02em;}.cls-7{letter-spacing:-0.01em;}.cls-8{letter-spacing:-0.04em;}.cls-21,.cls-9{letter-spacing:-0.01em;}.cls-10{letter-spacing:-0.02em;}.cls-11{fill:none;stroke:#ff0;stroke-miterlimit:10;}.cls-12{fill:#b8aba4;}.cls-13{fill:#ccb49f;}.cls-14{fill:#9e8c7a;}.cls-15{fill:#807160;}.cls-16{fill:#a18d77;}.cls-17{fill:#eedcb7;}.cls-18{fill:#c1b9a0;}.cls-19{letter-spacing:-0.02em;}.cls-20,.cls-21,.cls-22{fill:#fff;}.cls-22{letter-spacing:-0.07em;}.cls-23{letter-spacing:0em;}.cls-24{letter-spacing:-0.05em;}.cls-25{fill:#7288b4;opacity:0.85;}.cls-26{fill:#988f7f;}.cls-27{fill:#a99d8f;}.cls-28{fill:#928071;}.cls-29{fill:#ddc8ad;}.cls-30{fill:#ccb48e;}.cls-31{fill:#dac49b;}</style><linearGradient id="linear-gradient" x1="702" y1="683.5" x2="702" y2="51.5" gradientTransform="translate(348 -317)" gradientUnits="userSpaceOnUse"><stop offset="0" stop-color="#fff"/><stop offset="0.42" stop-color="#84d9fe"/></linearGradient><linearGradient id="linear-gradient-2" x1="1017" y1="1066.5" x2="1017" y2="-299.5" gradientTransform="translate(-334 -333)" gradientUnits="userSpaceOnUse"><stop offset="0" stop-color="#fff"/><stop offset="0.18" stop-color="#fcfeff"/><stop offset="0.3" stop-color="#f3fbff"/><stop offset="0.4" stop-color="#e4f7ff"/><stop offset="0.49" stop-color="#cff0ff"/><stop offset="0.58" stop-color="#b4e8fe"/><stop offset="0.65" stop-color="#92ddfe"/><stop offset="0.68" stop-color="#84d9fe"/></linearGradient></defs><title>Artboard 1</title><rect class="cls-1" x="999.5" y="-265.5" width="101" height="632" transform="translate(1100.5 -999.5) rotate(90)"/><rect class="cls-2" x="632.5" y="-632.5" width="101" height="1366" transform="translate(632.5 733.5) rotate(-90)"/><text class="cls-3" transform="translate(580 83.45)">A<tspan class="cls-4" x="54.12" y="0">bout</tspan></text><text class="cls-5" transform="translate(536.81 151.81) scale(0.99 1)">I’m a nat<tspan class="cls-6" x="98.25" y="0">i</tspan><tspan class="cls-7" x="105.01" y="0">v</tspan><tspan x="117.7" y="0">e San </tspan><tspan class="cls-8" x="185.61" y="0">F</tspan><tspan class="cls-9" x="197.65" y="0">r</tspan><tspan x="206" y="0">anciscan</tspan></text><text class="cls-5" transform="translate(374.01 188.24) scale(0.99 1)">Stu<tspan class="cls-10" x="34.68" y="0">d</tspan><tspan x="48.52" y="0">ying Sustainable E</tspan><tspan class="cls-9" x="250.82" y="0">n</tspan><tspan x="264.97" y="0">vironmental Design at UC Berekely</tspan></text><path class="cls-11" d="M486.5,497.5s-28,6-30,14,44,11,44,11Z"/><path class="cls-12" d="M865,246.43s2.13-5.71,5.32-4.57,14.91,9.14,18.1,9.14,4.26-1.14,6.39,0,3.19-2.29,3.19-2.29a6.39,6.39,0,0,1,4.26,2.29c2.13,2.29,12.78,4.57,12.78,4.57s7.45-1.14,8.52,0,13.84,1.14,13.84,1.14,7.45,0,11.71-2.29L964,260.14,975.74,259l23.43,10.29h5.32s4.26,0,6.39,2.29,10.65-2.29,21.3,4.57,14.91-3.43,14.91-3.43,3.19,5.71,7.45,5.71,5.32-11.43,10.65-9.14a84.4,84.4,0,0,1,10.65,5.71s9.58-6.86,17-3.43,8.52-4.57,12.78-3.43,17-3.43,24.49,0,10.65-8,20.23-4.57,23.43,2.29,23.43,2.29,16-8,25.56-5.71,25.56,0,25.56,0,7.45-9.14,17-8a29,29,0,0,0,17-3.43s9.58-6.86,13.84,0,17-4.57,17-4.57h9.58l19.17-10.29,18.1-4.57,28.75-2.29.53,39.5L888.43,331Z"/><path class="cls-13" d="M943,307.5s29.46-7,29.46-9,6.55,2,6.55,2,20.73-1,26.19-5,13.1-6,13.1-6,6.55,0,8.73,2,16.37-5,16.37-5,7.64-2,12,0,17.46-1,17.46-1,7.64-3,14.19-1,15.28-2,18.55-1,10.91-5,14.19-3,17.46-3,17.46-3,17.46-3,25.1,0,22.92-3,22.92-3,4.37-4,18.55-1,16.37-5,21.83-4,13.1-7,25.1-3,24-6,24-6,9.82-6,15.28-4,20.73-3,20.73-3,7.64-3,9.82-8,12-5,14.19-4,9.82,2,13.1-1,8.73-1,13.1-2a15.31,15.31,0,0,0,6.55-3l-1.09,57.13L943,345.5Z"/><path class="cls-14" d="M962,324.5s37.81,3,44.29-2,22.68-7,22.68-7,19.44-12,23.76-11,13-7,30.25,0,36.73-3,36.73-3,19.44-10,34.57-7,42.13,7,61.57,0,34.57-23,51.85-20,71.29-5,72.37-10,25.93-17,25.93-17v77.89L964.16,370.5Z"/><path class="cls-15" d="M976.4,360.5s39.61-12,72.62-26,68.22-11,68.22-11,44,3,61.62,13,64.92-19,64.92-19,23.11-18,29.71-16c0,0,24.21-6,37.41,4s56.11,0,56.11,0v79.11L972,398.5Z"/><path class="cls-16" d="M990.59,383.5s57.82-18,110.19-25,89.46,5,89.46,5,21.82,9,37.1,6,89.46-13,89.46-13,33.82-6,50.19,6V523.69L965.5,502.5Z"/><path class="cls-17" d="M993.62,467.5s313-6,373.38,31v75L942.5,549.21Z"/><path class="cls-18" d="M0,679s211.64-84,353.1-89S1008,534.5,1008,534.5s65.87-10,358.5,30v203l-1366,1Z"/><text class="cls-5" transform="translate(635.71 726.24) scale(0.99 1)">If <tspan class="cls-19" x="21.68" y="0">y</tspan><tspan x="34.22" y="0">ou like it, let me </tspan><tspan class="cls-20" x="223.52" y="0">kn</tspan><tspan class="cls-21" x="250.98" y="0">o</tspan><tspan class="cls-22" x="265.12" y="0">w</tspan><tspan class="cls-23" x="283.43" y="0">.</tspan></text><text class="cls-5" transform="translate(326.71 693.96) scale(0.99 1)"><tspan class="cls-24">T</tspan><tspan x="13.29" y="0">his site is a selection of </tspan><tspan class="cls-7" x="277.76" y="0">m</tspan><tspan x="299.1" y="0">y </tspan><tspan class="cls-9" x="319.33" y="0">w</tspan><tspan x="339.25" y="0">ork</tspan></text><path class="cls-25" d="M594.41,249.31l-17,9.38L565.26,254H551.9s-7.29-5.86-13.36,0c0,0-17-12.9-29.14,0,0,0-59.5-14.08-80.15-9.38s-31.57,7-31.57,7-6.07,2.35-26.72,7a84.88,84.88,0,0,1-37.65,0S315.11,252.83,309,261s-43.72,0-43.72,0-26.72-8.21-42.5,3.52c0,0-27.93-10.56-38.86,0,0,0-8.5-10.56-37.65,0s-35.22,0-35.22,0,1.21,1.17-15.79,2.35-27.93-4.69-27.93-4.69-12.14,5.86-15.79,7-50.59,0-50.59,0L.41,346.63l568.5-32.81Z"/><path class="cls-26" d="M502.61,313.1l-32.39-4.23-16.79,8.45S416.65,317,417,320.1s-44-7-50-5.31-33.59,5.92-33.59,5.92l-38.39,3.38s-16.79-18.59-32.39-15.21-31.49,18.82-31.49,18.82S211.12,308,205.12,312.26s-18,10.14-18,10.14-38.39-18.59-49.18-13.52-40.78,23.66-44.38,18.59-33.59-14.37-48-9.3S0,323.24,0,323.24V365.5l523-23.66Z"/><path class="cls-26" d="M504,320s-11.17,2-18.61,2S422.09,306,406,312s-35.36,6.5-35.36,6.5-17.37-3-26.06-5-39.71,3-39.71,3-27.3-11-40.95-6-39.71,8-39.71,8-28.54-13-40.95-9-44.67,8-44.67,8-13.65-10-27.3-6-18.61,3-29.78,4-34.74-3-34.74-3l-26.06-4S9.5,310,.2,315.25L0,365.9l519.5-17.4Z"/><path class="cls-27" d="M510.15,321.38s-20.4-8.2-52.27,5.86c0,0-8.92,0-10.2,2.34s-17.85-2.34-30.6,4.69c0,0-29.32-9.38-35.7-4.69s-15.3,4.69-15.3,4.69-16.57,0-25.5-4.69c0,0-11.47,1.17-14,4.69s-14-5.86-17.85-4.69-12.75,4.69-19.12,5.86-15.3-10.55-24.22-5.86a51.47,51.47,0,0,1-22.95,5.86c-5.1,0-21.67-5.86-21.67-5.86s-6.37,3.52-11.47,5.86-49.72-5.86-49.72-5.86a83,83,0,0,1-14,5.86c-7.65,2.34-23.16,9-30.07,15.06s-22.2-9.2-22.2-9.2a117.26,117.26,0,0,1-21.67,10.55c-12.75,4.69-43.35-3.52-43.35-3.52L.83,340.21,0,383.5l528-34Z"/><path class="cls-27" d="M501.28,334.5s-78.68,9.38-81.73,20.19c0,0-14.44-7.19-39.75-10.19s-58.21,6-58.21,6-48.09-13-75.92,0-83.52,0-83.52,0-51.88-1-65.8,6S0,350.5,0,350.5v45.74L519,365.5Z"/><path class="cls-28" d="M494.68,353.5s-77.87,2-77.87,6-28.09-3-28.09-3-6.38-3-21.7,4-49.79,0-49.79,0-28.09-5-51.06,3-65.11,0-65.11,0-10.21,0-17.87,4-49.79,0-49.79,0-24.26-3-28.09,2-43.4,0-43.4,0-19.15-7-29.36,0S0,371.72,0,371.72V445L510,418.5Z"/><path class="cls-28" d="M475.89,383.5s-55.47,18-64.29,19-66.81,7-66.81,7-21.43-5-36.56,0-50.43,5-50.43,5-27.73,0-37.82,5-54.21,0-54.21,0-36.56-9-47.9,2-49.17,10-49.17,10-20.17-7-34,0S0,432,0,432v60.62L488.5,449.5Z"/><path class="cls-29" d="M482.76,409.5s-39.09,10-57.33,10-58.63-6-69.06,0-43-2-52.12,5-53.42,0-53.42,0-28.67,4-36.48,8-46.91,0-46.91,0-37.79,3-37.79,8-22.15,19-33.88,17-30-12-41.7-8S7.17,468,0,463.25V522.5l501-44Z"/><path class="cls-30" d="M482.92,432s-46.53,9-59.45,4-60.74-1-60.74-1l-23.26,8s-53,9-59.45,7-64-6.5-80.78,5.5-53,23-53,23-25.85,23-41.36,24S.84,510,.84,510L0,553.24,530,510Z"/><path class="cls-31" d="M490.79,449s-22.1,15-65,10-174.21,14-174.21,14-72.81,9-107.91,36.08S0,533.07,0,533.07L.65,678.5,590,581Z"/><image width="4032" height="3024" transform="translate(400 204) scale(0.15)" xlink:href="../Downloads/Awesome.png"/></svg>